<svg xmlns="http://www.w3.org/2000/svg" viewBox="0 0 320 2560"><defs><style>.a{fill:#cdedf6;}.a,.aa,.ab,.ac,.ad,.ae,.af,.ag,.ah,.ai,.aj,.ak,.al,.am,.an,.ao,.ap,.aq,.ar,.as,.at,.b,.c,.d,.e,.f,.g,.h,.i,.j,.k,.l,.m,.n,.o,.p,.q,.r,.s,.t,.u,.v,.w,.x,.y,.z{stroke:#42210b;stroke-linecap:round;stroke-linejoin:round;stroke-width:7.49px;}.b{fill:#79ccd3;}.c{fill:#a3e9f0;}.d{fill:#4092a2;}.e{fill:#62c5d2;}.f{fill:#a1e7ed;}.g{fill:#7dcdd7;}.h{fill:#5db4c5;}.i{fill:#d6d6d6;}.j{fill:#f8f8f8;}.k{fill:#ccc;}.l{fill:#ff7979;}.m{fill:#ff5958;}.n{fill:#f73b37;}.o{fill:#fe5a57;}.p{fill:#ff9292;}.q{fill:#1e7405;}.r{fill:#279d2b;}.s{fill:#19802d;}.t{fill:#2eb825;}.u{fill:#339c35;}.v{fill:#8cda6a;}.w{fill:#f5b2cf;}.x{fill:#f492bc;}.y{fill:#ff93c0;}.z{fill:#ffd4e6;}.aa{fill:#f282b0;}.ab{fill:#f5aec8;}.ac{fill:#f4dc27;}.ad{fill:#ed9b0d;}.ae{fill:#f1b600;}.af{fill:#f1f50e;}.ag{fill:#edc102;}.ah{fill:#f6ca18;}.ai{fill:#efb000;}.aj{fill:#f0cc00;}.ak{fill:#39aa67;}.al{fill:#43be6c;}.am{fill:#79f1a0;}.an{fill:#51ce77;}.ao{fill:#69e193;}.ap{fill:#7ad7ff;}.aq{fill:#278dd3;}.ar{fill:#deffff;}.as{fill:#56b6f7;}.at{fill:#aae3fe;}</style></defs><title>jewels320</title><path class="a" d="M127.47,110.45,160.5,32l33,78.46Z"/><path class="b" d="M193.53,110.45l53.68-8.26L160.5,32Z"/><path class="c" d="M127.47,110.45,73.78,98.06,160.5,32Z"/><path class="b" d="M127.47,213.68l33,74.32,33-74.32Z"/><path class="d" d="M193.53,213.68l53.68-8.26L160.5,288Z"/><path class="e" d="M127.47,213.68l-53.68-8.26L160.5,288Z"/><path class="f" d="M127.47,110.45h66.07V213.68H127.47Z"/><path class="g" d="M127.47,213.68V110.45L73.78,98.06V205.43Z"/><path class="h" d="M193.53,110.45l53.68-8.26V205.42l-53.68,8.26Z"/><path class="i" d="M56.61,376.27q51.87,17.28,103.73,17.28t103.73-17.29Q246.8,428.13,246.8,480t17.29,103.73q-51.88-17.28-103.74-17.28T56.61,583.74Q73.89,531.87,73.89,480T56.61,376.27Z"/><path class="j" d="M264.08,376.71Q246.8,428.58,246.8,480.45t17.29,103.73Q212.21,566.9,160.34,566.9T56.61,584.19q17.28-51.88,17.28-103.74T56.6,376.71Q108.48,394,160.34,394T264.08,376.7ZM204.59,436.2l-1.23.16a357.08,357.08,0,0,1-86,0l-1.25-.16.16,1.25a358,358,0,0,1,2.6,39.41l0,3.59a357.15,357.15,0,0,1-2.6,43l-.16,1.23,1.25-.15A358,358,0,0,1,156.75,522l3.59,0a357.15,357.15,0,0,1,43,2.6l1.23.15-.15-1.23A358.37,358.37,0,0,1,201.85,484l0-3.59a357.15,357.15,0,0,1,2.6-43l.15-1.25Z"/><path class="k" d="M264,376.94l.07-.22Q246.8,428.58,246.8,480.45T264,584l-59.26-59.26-.2-.35-.11-.88A358.38,358.38,0,0,1,201.85,484l0-3.59a357.15,357.15,0,0,1,2.6-43l.11-.94.2-.31ZM56.61,584.18q17.28-51.87,17.28-103.73A325.33,325.33,0,0,0,57.73,380.17l-1.13-3.46,59.49,59.49.16,1.25a358,358,0,0,1,2.59,39.41l0,3.59a357.15,357.15,0,0,1-2.6,43l-.16,1.23Z"/><path class="l" d="M160.5,675.05l125,125-125,125L35.5,800Z"/><path class="m" d="M89.07,800l71.43,71.43V925L35.5,800Z"/><path class="n" d="M285.5,800l-125,125V871.47L231.93,800Z"/><path class="o" d="M160.5,675.05l125,125H231.93L160.5,728.62Z"/><path class="p" d="M160.5,675.05v53.57L89.07,800H35.5Z"/><path class="q" d="M160.34,1249.41A95.41,95.41,0,0,0,255.76,1154q0-52.7-95.42-164.12Q64.93,1101.3,64.93,1154A95.41,95.41,0,0,0,160.34,1249.41Z"/><path class="r" d="M158.77,1249.4A95.42,95.42,0,0,1,64.93,1154q0-52.7,95.42-164.12v259.53Z"/><path class="s" d="M160.34,1157.81v91.6A95.42,95.42,0,0,1,65,1157.81Z"/><path class="t" d="M160.34,1157.81v91.6a95.42,95.42,0,0,0,95.34-91.6Z"/><path class="u" d="M187.06,1203.6,210,1235.51a95.51,95.51,0,0,1-99.25,0l22.91-31.91Z"/><path class="v" d="M133.63,1203.6l-34.35-45.79,61.07-110.68,61.07,110.68-34.35,45.79Z"/><path class="w" d="M160.5,1308l55.34,89.39H105.1Z"/><path class="x" d="M160.5,1572l55.34-174.53H105.1Z"/><path class="y" d="M160.43,1308l-55.33,89.39-34-30.19Z"/><path class="z" d="M160.5,1308l55.34,89.39,34-30.19Z"/><path class="aa" d="M160.5,1572l-66-42.56L71.11,1367.24l34,30.19Z"/><path class="ab" d="M160.5,1572l61.76-42.57,27.63-162.15-34,30.2Z"/><path class="ac" d="M181.51,1644.21l94.57,94.57v42.45l-94.57,94.57H139.06l-94.57-94.57v-42.45l94.57-94.57Z"/><path class="ad" d="M83.08,1765.24l72,72-16,38.6-94.57-94.57Z"/><path class="ae" d="M181.51,1644.21l94.57,94.57-38.6,16-72-72Z"/><path class="af" d="M139,1644.21l16,38.6h10.48l16-38.6Z"/><path class="ag" d="M139,1875.79l16-38.6h10.47l16,38.6Z"/><path class="ah" d="M237.48,1765.23v-10.47l38.6-16v42.45Z"/><path class="ae" d="M83.08,1765.24l-38.6,16v-42.45l38.6,16Z"/><path class="ai" d="M181.51,1875.79l-16-38.6,72-72,38.6,16Z"/><path class="aj" d="M83.08,1754.76l-38.6-16,94.57-94.57,16,38.6Z"/><path class="ak" d="M160.27,1968.86l118.55,84.89-45.28,137.39H87L41.72,2053.76Z"/><path class="al" d="M160.27,2023.54l-66.09,47.34,25,75.81h82.23l25-75.81Z"/><path class="am" d="M160.27,2023.54v-54.68L41.72,2053.75l52.43,17.12Z"/><path class="an" d="M41.72,2053.76,87,2191.14l32.15-44.46-25-75.81Z"/><path class="ak" d="M119.15,2146.69,87,2191.14H233.54l-32.15-44.46Z"/><path class="ao" d="M201.38,2146.69l25-75.81,52.45-17.12-45.28,137.38Z"/><path class="ap" d="M59,2358.06A109.59,109.59,0,1,0,261.51,2442h0A109.59,109.59,0,0,0,59,2358l0,0Z"/><path class="aq" d="M160.27,2468.88v40.74a110,110,0,0,1-77.51-32.1l28.8-28.81Z"/><path class="ar" d="M82.76,2322.49l28.81,28.81L91.38,2400H50.65a110,110,0,0,1,32.11-77.51Z"/><path class="as" d="M91.4,2400l20.17,48.69-28.81,28.81A110,110,0,0,1,50.65,2400Z"/><path class="at" d="M209,2448.7l28.81,28.81a110,110,0,0,1-77.52,32.11v-40.74Z"/><path class="as" d="M269.89,2400a110,110,0,0,1-32.11,77.51L209,2448.69,229.15,2400Z"/><path class="ar" d="M202.21,2298.76a109.26,109.26,0,0,1,35.58,23.72L209,2351.3l-48.69-20.18v-40.74A109.26,109.26,0,0,1,202.21,2298.76Z"/><path class="at" d="M160.27,2290.39v40.74l-48.69,20.17-28.81-28.81A110,110,0,0,1,160.27,2290.39Zm77.51,32.11a110,110,0,0,1,32.11,77.5H229.15L209,2351.3Z"/></svg>