<svg xmlns="http://www.w3.org/2000/svg" viewBox="0 0 1024 8192"><defs><style>.a{fill:#cdedf6;}.a,.aa,.ab,.ac,.ad,.ae,.af,.ag,.ah,.ai,.aj,.ak,.al,.am,.an,.ao,.ap,.aq,.ar,.as,.at,.b,.c,.d,.e,.f,.g,.h,.i,.j,.k,.l,.m,.n,.o,.p,.q,.r,.s,.t,.u,.v,.w,.x,.y,.z{stroke:#42210b;stroke-linecap:round;stroke-linejoin:round;stroke-width:24px;}.b{fill:#79ccd3;}.c{fill:#a3e9f0;}.d{fill:#4092a2;}.e{fill:#62c5d2;}.f{fill:#a1e7ed;}.g{fill:#7dcdd7;}.h{fill:#5db4c5;}.i{fill:#d6d6d6;}.j{fill:#f8f8f8;}.k{fill:#ccc;}.l{fill:#ff7979;}.m{fill:#ff5958;}.n{fill:#f73b37;}.o{fill:#fe5a57;}.p{fill:#ff9292;}.q{fill:#1e7405;}.r{fill:#279d2b;}.s{fill:#19802d;}.t{fill:#2eb825;}.u{fill:#339c35;}.v{fill:#8cda6a;}.w{fill:#f5b2cf;}.x{fill:#f492bc;}.y{fill:#ff93c0;}.z{fill:#ffd4e6;}.aa{fill:#f282b0;}.ab{fill:#f5aec8;}.ac{fill:#f4dc27;}.ad{fill:#ed9b0d;}.ae{fill:#f1b600;}.af{fill:#f1f50e;}.ag{fill:#edc102;}.ah{fill:#f6ca18;}.ai{fill:#efb000;}.aj{fill:#f0cc00;}.ak{fill:#39aa67;}.al{fill:#43be6c;}.am{fill:#79f1a0;}.an{fill:#51ce77;}.ao{fill:#69e193;}.ap{fill:#7ad7ff;}.aq{fill:#278dd3;}.ar{fill:#deffff;}.as{fill:#56b6f7;}.at{fill:#aae3fe;}</style></defs><title>jewels2-01-01</title><path class="a" d="M398.22,341.33,512,71.11,625.78,341.33Z"/><path class="b" d="M625.78,341.33l184.89-28.44L512,71.11Z"/><path class="c" d="M398.22,341.33,213.33,298.67,512,71.11Z"/><path class="b" d="M398.22,696.89,512,952.89l113.78-256Z"/><path class="d" d="M625.78,696.89l184.89-28.44L512,952.89Z"/><path class="e" d="M398.22,696.89,213.33,668.44,512,952.89Z"/><path class="f" d="M398.22,341.33H625.78V696.89H398.22Z"/><path class="g" d="M398.22,696.89V341.33L213.33,298.67V668.44Z"/><path class="h" d="M625.78,341.33l184.89-28.44V668.44L625.78,696.89Z"/><path class="i" d="M85.83,1109.33q213.33,71.1,426.67,71.11t426.67-71.11q-71.1,213.33-71.11,426.67t71.11,426.67q-213.33-71.1-426.67-71.11T85.83,1962.67q71.1-213.33,71.11-426.67T85.83,1109.33Z"/><path class="j" d="M939.17,1109.33q-71.1,213.33-71.11,426.67t71.11,426.67q-213.33-71.1-426.67-71.11T85.83,1962.67q71.1-213.33,71.11-426.67T85.83,1109.33q213.33,71.1,426.67,71.11t426.67-71.11ZM694.49,1354l-5.06.64a1468.86,1468.86,0,0,1-176.92,10.7,1469,1469,0,0,1-176.92-10.7l-5.08-.64.64,5.08a1472.44,1472.44,0,0,1,10.62,162.16l.07,14.76a1469,1469,0,0,1-10.7,176.92l-.64,5.06,5.08-.63a1472.45,1472.45,0,0,1,162.16-10.62l14.76-.07a1469,1469,0,0,1,176.92,10.7l5.06.63-.63-5.06a1474,1474,0,0,1-10.62-162.16l-.07-14.76a1469,1469,0,0,1,10.7-176.92l.63-5.08Z"/><path class="k" d="M938.87,1110.26l.3-.92q-71.1,213.33-71.11,426.67,0,212.86,70.8,425.74L695.14,1718l-.84-1.45-.44-3.61a1474.05,1474.05,0,0,1-10.62-162.16l-.07-14.76a1469,1469,0,0,1,10.7-176.92l.46-3.84.82-1.24Zm-853,852.41q71.1-213.33,71.11-426.67,0-206.23-66.45-412.44l-4.66-14.22L330.5,1354l.64,5.08a1472.44,1472.44,0,0,1,10.62,162.16l.07,14.76a1469,1469,0,0,1-10.7,176.92l-.64,5.06Z"/><path class="l" d="M512.5,2090.67,981.83,2560,512.5,3029.33,43.17,2560Z"/><path class="m" d="M244.31,2560,512.5,2828.19v201.14L43.17,2560Z"/><path class="n" d="M981.83,2560,512.5,3029.33V2828.19L780.69,2560Z"/><path class="o" d="M512.5,2090.67,981.83,2560H780.69L512.5,2291.81Z"/><path class="p" d="M512.5,2090.67v201.14L244.31,2560H43.17Z"/><path class="q" d="M512,4067.56c196.37,0,355.56-159.19,355.56-355.56q0-196.37-355.56-611.56Q156.44,3515.63,156.44,3712C156.44,3908.37,315.63,4067.56,512,4067.56Z"/><path class="r" d="M506.13,4067.51C312.46,4064.37,156.44,3906.4,156.44,3712q0-196.37,355.56-611.56v967.11Z"/><path class="s" d="M512,3726.22v341.33c-191.6,0-347.82-151.57-355.27-341.33H512Z"/><path class="t" d="M512,3726.22v341.33c191.6,0,347.82-151.55,355.27-341.33H512Z"/><path class="u" d="M611.56,3896.89l85.33,118.87a355.9,355.9,0,0,1-369.79,0l85.35-118.87Z"/><path class="v" d="M412.44,3896.89l-128-170.67L512,3313.78l227.56,412.44-128,170.67Z"/><path class="w" d="M512.5,4129.83,713,4453.75H311.72Z"/><path class="x" d="M512.5,5086.17,713,4453.75H311.72Z"/><path class="y" d="M512.24,4129.83,311.72,4453.75,188.58,4344.35Z"/><path class="z" d="M512.5,4129.83,713,4453.75l123.13-109.41Z"/><path class="aa" d="M512.5,5086.17,273.29,4931.93l-84.71-587.58,123.14,109.41Z"/><path class="ab" d="M512.5,5086.17l223.8-154.24,100.12-587.58L713.28,4453.75Z"/><path class="ac" d="M589,5211.09l343.74,343.74v154.33L589,6052.91H434.7L91,5709.17V5554.83L434.7,5211.09Z"/><path class="ad" d="M231.26,5651l261.57,261.57-58.13,140.3L91,5709.17Z"/><path class="ae" d="M589,5211.09l343.74,343.74L792.47,5613,530.9,5351.39Z"/><path class="af" d="M434.7,5211.09l58.11,140.3H530.9L589,5211.09Z"/><path class="ag" d="M434.7,6052.91l58.13-140.3h38.06L589,6052.91Z"/><path class="ah" d="M792.47,5651V5613l140.3-58.13v154.33Z"/><path class="ae" d="M231.26,5651,91,5709.17V5554.83l140.3,58.11Z"/><path class="ai" d="M589,6052.91l-58.13-140.3L792.47,5651l140.3,58.14Z"/><path class="aj" d="M231.26,5613,91,5554.83,434.7,5211.09l58.13,140.3Z"/><path class="ak" d="M512,6229.33l455.11,325.94L793.27,7082.67H230.73L56.89,6555.28Z"/><path class="al" d="M512,6439.25,258.23,6621l95.93,291H669.82l95.93-291Z"/><path class="am" d="M512,6439.25V6229.33L56.89,6555.28,258.23,6621Z"/><path class="an" d="M56.89,6555.28l173.84,527.39L354.16,6912l-95.93-291Z"/><path class="ak" d="M354.16,6912,230.71,7082.67H793.27L669.82,6912Z"/><path class="ao" d="M669.82,6912l95.93-291,201.36-65.71L793.27,7082.67Z"/><path class="ap" d="M104.65,7511.32c-93.19,225,13.64,482.87,238.6,576.05s482.87-13.64,576.05-238.6h0c93.23-224.94-13.55-482.87-238.5-576.1s-482.87,13.55-576.1,238.5l-.07.16Z"/><path class="aq" d="M512,7957.13V8121a442.45,442.45,0,0,1-311.82-129.15L316,7876Z"/><path class="ar" d="M200.14,7368.2l115.91,115.91L234.87,7680H71A442.45,442.45,0,0,1,200.14,7368.2Z"/><path class="as" d="M234.89,7680,316,7876l-115.9,115.91A442.41,442.41,0,0,1,71,7680Z"/><path class="at" d="M707.92,7876l115.91,115.9A442.41,442.41,0,0,1,512,8121V7957.13Z"/><path class="as" d="M953,7680.05a442.45,442.45,0,0,1-129.17,311.82L707.9,7876,789.08,7680Z"/><path class="ar" d="M680.7,7272.71a439.57,439.57,0,0,1,143.12,95.49L707.9,7484.11,512,7402.93V7239A439.56,439.56,0,0,1,680.7,7272.71Z"/><path class="at" d="M512,7239v163.91L316,7484.1,200.13,7368.2A442.41,442.41,0,0,1,512,7239ZM823.81,7368.2A442.41,442.41,0,0,1,953,7680H789.07L707.92,7484.1Z"/></svg>