<svg xmlns="http://www.w3.org/2000/svg" viewBox="0 0 1270.77 611.7"><defs><style>.a{fill:#a1e0ff;}.b{fill:#5d101d;}.c{fill:#fff;}.d{fill:#fff076;}.e{fill:#ffa607;stroke:#5d101d;stroke-linecap:round;stroke-linejoin:round;stroke-width:7px;}</style></defs><title>logo</title><path class="a" d="M666.53,588.5l288.9-386a52.12,52.12,0,0,0,2.1-59.3L887.83,34.8a51.94,51.94,0,0,0-43.7-23.9H441.73A52.11,52.11,0,0,0,396,38l-58.2,106.9a52,52,0,0,0,3.3,55l276.3,387.8a30.37,30.37,0,0,0,42.3,7.1A25.43,25.43,0,0,0,666.53,588.5Z"/><path class="b" d="M642.33,611.7a41.21,41.21,0,0,1-33.7-17.3L332.23,206.5a63.26,63.26,0,0,1-4-66.7l58.2-106.9A62.83,62.83,0,0,1,441.73,0h402.2a62.88,62.88,0,0,1,53,28.9l69.7,108.4a63.29,63.29,0,0,1-2.5,71.8l-288.9,386a42.67,42.67,0,0,1-9.1,8.9,40.44,40.44,0,0,1-23.8,7.7ZM441.73,22a41,41,0,0,0-36,21.4l-58.2,106.9a41.43,41.43,0,0,0,2.6,43.4l276.3,387.8A19.26,19.26,0,0,0,653.29,586l0,0a21.4,21.4,0,0,0,4.3-4.2l288.9-386a41.14,41.14,0,0,0,1.7-46.7L878.53,40.7A40.85,40.85,0,0,0,844,21.9H441.73Z"/><path class="c" d="M639.13,11.7l-109,153h230Z"/><path class="d" d="M645.63,562.7l-110.5-388h221Z"/><path class="b" d="M877.83,159h72.3a12,12,0,1,1,0,24h-72.3a12,12,0,0,1,0-24Zm-331.7,24.5L642.53,541l96.4-357.4Zm-3.7-24,198.8.1-96-137.3c-.1-.1-.2-.2-.2-.3L544.63,157.3A9.19,9.19,0,0,1,542.43,159.5Zm-36.6,0-92.4-123a11.61,11.61,0,0,1,2.3-16.2c.2-.1.3-.2.5-.3a12.88,12.88,0,0,1,17.4,2.9l91.6,121.9c.1-.2.2-.3.3-.5l101-136A12.13,12.13,0,0,1,643,5.5c.1.1.3.2.4.3a13.63,13.63,0,0,1,2.4,2.4,9.15,9.15,0,0,1,2.5-2.3c.1,0,.1-.1.2-.1a12.24,12.24,0,0,1,16.8,3.1l94.6,135.3,92.5-132.6a12.42,12.42,0,0,1,17-3.2c.1,0,.1.1.2.1a12.1,12.1,0,0,1,3,16.7l-93.8,134.5h62.4a12,12,0,0,1,0,24l-74.9-.1L656.53,590.2a18.7,18.7,0,0,1-29.9-7.5L518.93,183.5,346,183.4a12,12,0,0,1,0-24l159.8.1Z"/><path class="e" d="M147.43,304.4q-10.74,22-21.66,43.84Q64.49,338.52,3.5,327.16q14.77-76.83,29.35-153.7,60.58,8.5,121.36,15.31Q153.56,213.39,153,238c-5.87,9.32-8.82,14-14.75,23.28Zm-88.9-34.53-4.3,29.44q22.92,3.31,45.86,6.43c1.83-4.9,2.75-7.35,4.57-12.25-2.22-7-3.33-10.56-5.52-17.61Q78.83,273,58.53,269.87Zm53.84-40.53,1.58-16.08q-23.06-1.55-46.1-3.3L62.7,243.28Q82,245,101.4,246.44c4.41-6.83,6.6-10.25,11-17.09Z"/><path class="e" d="M292.28,311.56q.17,24.9.4,49.8-64.55-4.61-128.93-11.07,11.47-79,22.78-157.93,57.53,5.87,115.18,10.25.7,16.55,1.41,33.11-36-.14-71.93-.82c-.66,8.59-1,12.89-1.65,21.48q30.43.54,60.86.71-2.53,17.27-5.07,34.53-29-2.34-58-5c-.74,10.52-1.11,15.78-1.84,26.3Q258.86,312.46,292.28,311.56Z"/><path class="e" d="M315.06,360.93,318,313.7q16.35,2.71,32.72,5.33.2-53.1.56-106.2,22,.88,44,1.58-6.65,72.68-13.46,145.39Q348.43,360.56,315.06,360.93Z"/><path class="e" d="M528.43,325.06q1.62,24.85,3.3,49.69-64.64-.84-129.23-3.51,6.83-79.49,13.51-159,57.71,2.5,115.46,3.5,1.66,16.49,3.34,33-35.89,2-71.79,3.38c-.16,8.61-.24,12.92-.39,21.53q30.38-1.23,60.74-2.85-1.52,17.39-3,34.77-29.1-.64-58.18-1.6l-.3,26.36Q495.15,327.91,528.43,325.06Z"/><path class="e" d="M572.17,373.93Q554.68,304,538.32,233.8q23.54-2.79,47-5.85,4.18,35.2,8.49,70.38,6.55-32.64,12.93-65.32,18.09,2,36.19,3.83,6.4,20.4,12.88,40.77,2.34-24.66,4.62-49.32,25.72,1.11,51.44,2Q694.23,299.81,675.44,369q-14.32,2.53-28.65,5-12.36-32.23-24.53-64.44-9.41,32.27-19,64.46Q587.7,374.06,572.17,373.93Z"/><path class="e" d="M838.91,321.8q3.52,24.65,7.1,49.29-64.51,4.12-129.11,6.4.72-79.78,1.29-159.56,57.73-1.93,115.38-5.36,2.92,16.31,5.86,32.62-35.63,4.71-71.32,8.87c.5,8.6.75,12.9,1.26,21.5q30.2-3.56,60.34-7.49-.18,17.45-.37,34.9-29.06,1.59-58.14,2.86c.68,10.52,1,15.78,1.72,26.31Q806,327.21,838.91,321.8Z"/><path class="e" d="M859.28,218.35q22.16-3,44.29-6.1-.06,56.65-.3,113.3,33.28-6.32,66.47-13.09l4,49.13q-50.93,2.64-101.9,4.17Q865.48,292.06,859.28,218.35Z"/><path class="e" d="M1110.52,299.38q5.18,24.36,10.41,48.7-64.16,8.46-128.53,15.08-4.64-79.65-9.43-159.28,57.54-5.81,114.89-13.11l8,32.15q-35.28,7.1-70.66,13.65l2.7,21.37q29.92-5.58,59.77-11.54l2,34.85q-28.92,3.55-57.88,6.77c1.39,10.45,2.09,15.68,3.48,26.13Q1078,307,1110.52,299.38Z"/><path class="e" d="M1124.43,187q51.67-5.47,103.19-12.13,19.61,37.91,39.65,75.59-8.87,40.44-18.22,80.76-53,3.85-106,6.48Zm86.8,107.66q3.93-22.87,7.74-45.76-7.3-19.26-14.52-38.55-17.29,2.76-34.61,5.37,8.32,41.62,16.74,83.22c9.85-1.68,14.76-2.54,24.61-4.28Z"/></svg>