<?xml version="1.0" encoding="utf-8"?>
<!-- Generator: Adobe Illustrator 21.0.0, SVG Export Plug-In . SVG Version: 6.00 Build 0)  -->
<svg version="1.1" id="图层_1" xmlns="http://www.w3.org/2000/svg" xmlns:xlink="http://www.w3.org/1999/xlink" x="0px" y="0px"
	 viewBox="0 0 1270.8 611.7" style="enable-background:new 0 0 1270.8 611.7;" xml:space="preserve">
<style type="text/css">
	.st0{fill:#A1E0FF;}
	.st1{fill:#5D101D;}
	.st2{fill:#FFFFFF;}
	.st3{fill:#FFF076;}
	.st4{fill:#FFA607;stroke:#5D101D;stroke-width:7;stroke-linecap:round;stroke-linejoin:round;}
</style>
<title>diamond</title>
<path class="st0" d="M666.5,588.5l288.9-386c13-17.4,13.8-41,2.1-59.3L887.8,34.8c-9.5-14.9-26-23.9-43.7-23.9H441.7
	c-19,0-36.6,10.4-45.7,27.1l-58.2,106.9c-9.5,17.5-8.2,38.8,3.3,55l276.3,387.8c9.7,13.6,28.7,16.8,42.3,7.1
	C662.4,593.1,664.7,591,666.5,588.5z"/>
<path class="st1" d="M642.3,611.7c-13.4,0-25.9-6.4-33.7-17.3L332.2,206.5c-13.9-19.7-15.5-45.5-4-66.7l58.2-106.9
	C397.4,12.6,418.7,0,441.7,0h402.2c21.4,0,41.4,10.9,53,28.9l69.7,108.4c14.1,22.1,13.2,50.7-2.5,71.8l-288.9,386
	c-2.6,3.4-5.6,6.4-9.1,8.9C659.2,609,650.9,611.7,642.3,611.7L642.3,611.7z M441.7,22c-15,0-28.8,8.2-36,21.4l-58.2,106.9
	c-7.4,13.8-6.4,30.6,2.6,43.4l276.3,387.8c6.2,8.7,18.2,10.7,26.9,4.5c0,0,0,0,0,0c1.6-1.2,3.1-2.6,4.3-4.2l288.9-386
	c10.2-13.7,10.9-32.3,1.7-46.7L878.5,40.7C871,29,858,21.9,844,21.9H441.7V22z"/>
<path class="st2" d="M639.1,11.7l-109,153h230L639.1,11.7z"/>
<path class="st3" d="M645.6,562.7l-110.5-388h221L645.6,562.7z"/>
<path class="st1" d="M877.8,159h72.3c6.6,0,12,5.4,12,12s-5.4,12-12,12h-72.3c-6.6,0-12-5.4-12-12S871.2,159,877.8,159z
	 M546.1,183.5L642.5,541l96.4-357.4L546.1,183.5z M542.4,159.5l198.8,0.1l-96-137.3c-0.1-0.1-0.2-0.2-0.2-0.3L544.6,157.3
	C544,158.2,543.3,158.9,542.4,159.5z M505.8,159.5l-92.4-123c-3.8-5.1-2.8-12.3,2.3-16.2c0.2-0.1,0.3-0.2,0.5-0.3
	c5.7-3.8,13.3-2.5,17.4,2.9l91.6,121.9c0.1-0.2,0.2-0.3,0.3-0.5l101-136c3.9-5.2,11.1-6.4,16.5-2.8c0.1,0.1,0.3,0.2,0.4,0.3
	c0.9,0.7,1.7,1.5,2.4,2.4c0.7-0.9,1.5-1.7,2.5-2.3c0.1,0,0.1-0.1,0.2-0.1c5.5-3.7,13-2.3,16.8,3.1l94.6,135.3l92.5-132.6
	c3.9-5.5,11.4-6.9,17-3.2c0.1,0,0.1,0.1,0.2,0.1c5.4,3.8,6.7,11.2,3,16.7l-93.8,134.5h62.4c6.6,0,12,5.4,12,12s-5.4,12-12,12
	l-74.9-0.1L656.5,590.2c-7.7,6.8-19.6,6.1-26.4-1.6c-1.5-1.7-2.7-3.7-3.5-5.9L518.9,183.5L346,183.4c-6.6,0-12-5.4-12-12
	s5.4-12,12-12L505.8,159.5L505.8,159.5z"/>
<path class="st4" d="M147.4,304.4c-7.2,14.7-14.4,29.3-21.7,43.8c-40.9-6.5-81.6-13.5-122.3-21.1c9.8-51.2,19.6-102.5,29.4-153.7
	c40.4,5.7,80.8,10.8,121.4,15.3c-0.4,16.4-0.8,32.8-1.2,49.2c-5.9,9.3-8.8,14-14.8,23.3C141.3,275.7,144.4,290,147.4,304.4z
	 M58.5,269.9l-4.3,29.4c15.3,2.2,30.6,4.4,45.9,6.4c1.8-4.9,2.8-7.3,4.6-12.3c-2.2-7-3.3-10.6-5.5-17.6
	C85.6,273.9,72.1,271.9,58.5,269.9z M112.4,229.3l1.6-16.1c-15.4-1-30.7-2.1-46.1-3.3l-5.1,33.3c12.9,1.1,25.8,2.2,38.7,3.2
	C105.8,239.6,108,236.2,112.4,229.3L112.4,229.3z"/>
<path class="st4" d="M292.3,311.6c0.1,16.6,0.2,33.2,0.4,49.8c-43-3.1-86-6.8-128.9-11.1c7.6-52.7,15.2-105.3,22.8-157.9
	c38.4,3.9,76.7,7.3,115.2,10.3c0.5,11,0.9,22.1,1.4,33.1c-24-0.1-48-0.4-71.9-0.8c-0.7,8.6-1,12.9-1.7,21.5
	c20.3,0.4,40.6,0.6,60.9,0.7c-1.7,11.5-3.4,23-5.1,34.5c-19.3-1.6-38.7-3.2-58-5c-0.7,10.5-1.1,15.8-1.8,26.3
	C247.7,312.6,270,312.2,292.3,311.6z"/>
<path class="st4" d="M315.1,360.9c1-15.7,1.9-31.5,2.9-47.2c10.9,1.8,21.8,3.6,32.7,5.3c0.1-35.4,0.3-70.8,0.6-106.2
	c14.7,0.6,29.3,1.1,44,1.6c-4.4,48.5-8.9,96.9-13.5,145.4C359.5,360.3,337.3,360.7,315.1,360.9z"/>
<path class="st4" d="M528.4,325.1c1.1,16.6,2.2,33.1,3.3,49.7c-43.1-0.6-86.2-1.7-129.2-3.5c4.6-53,9.1-106,13.5-159
	c38.5,1.7,77,2.8,115.5,3.5c1.1,11,2.2,22,3.3,33c-23.9,1.3-47.9,2.5-71.8,3.4c-0.2,8.6-0.2,12.9-0.4,21.5
	c20.3-0.8,40.5-1.8,60.7-2.8c-1,11.6-2,23.2-3,34.8c-19.4-0.4-38.8-1-58.2-1.6c-0.1,10.5-0.2,15.8-0.3,26.4
	C484.1,328.7,506.2,327,528.4,325.1z"/>
<path class="st4" d="M572.2,373.9c-11.7-46.6-22.9-93.3-33.8-140.1c15.7-1.9,31.4-3.8,47-5.9c2.8,23.5,5.6,46.9,8.5,70.4
	c4.4-21.8,8.7-43.5,12.9-65.3c12.1,1.3,24.1,2.6,36.2,3.8c4.3,13.6,8.6,27.2,12.9,40.8c1.6-16.4,3.1-32.9,4.6-49.3
	c17.1,0.7,34.3,1.4,51.4,2c-11.8,46.3-23.9,92.6-36.4,138.7c-9.5,1.7-19.1,3.4-28.7,5c-8.2-21.5-16.4-43-24.5-64.4
	c-6.3,21.5-12.6,43-19,64.5C592.9,374.1,582.5,374,572.2,373.9z"/>
<path class="st4" d="M838.9,321.8c2.3,16.4,4.7,32.9,7.1,49.3c-43,2.7-86,4.9-129.1,6.4c0.5-53.2,0.9-106.4,1.3-159.6
	c38.5-1.3,76.9-3.1,115.4-5.4c1.9,10.9,3.9,21.7,5.9,32.6c-23.8,3.1-47.5,6.1-71.3,8.9c0.5,8.6,0.8,12.9,1.3,21.5
	c20.1-2.4,40.2-4.9,60.3-7.5c-0.1,11.6-0.2,23.3-0.4,34.9c-19.4,1.1-38.8,2-58.1,2.9c0.7,10.5,1,15.8,1.7,26.3
	C794.9,328.9,816.9,325.4,838.9,321.8z"/>
<path class="st4" d="M859.3,218.4c14.8-2,29.5-4,44.3-6.1c0,37.8-0.1,75.5-0.3,113.3c22.2-4.2,44.3-8.6,66.5-13.1l4,49.1
	c-34,1.8-67.9,3.2-101.9,4.2C867.6,316.6,863.4,267.5,859.3,218.4z"/>
<path class="st4" d="M1110.5,299.4c3.5,16.2,6.9,32.5,10.4,48.7c-42.8,5.6-85.6,10.7-128.5,15.1c-3.1-53.1-6.2-106.2-9.4-159.3
	c38.4-3.9,76.7-8.2,114.9-13.1c2.7,10.7,5.3,21.4,8,32.1c-23.5,4.7-47.1,9.3-70.7,13.6l2.7,21.4c19.9-3.7,39.9-7.6,59.8-11.5
	c0.7,11.6,1.3,23.2,2,34.9c-19.3,2.4-38.6,4.6-57.9,6.8c1.4,10.5,2.1,15.7,3.5,26.1C1067.1,309.4,1088.8,304.4,1110.5,299.4z"/>
<path class="st4" d="M1124.4,187c34.4-3.6,68.8-7.7,103.2-12.1c13.1,25.3,26.3,50.5,39.7,75.6c-5.9,27-12,53.9-18.2,80.8
	c-35.3,2.6-70.7,4.7-106,6.5L1124.4,187z M1211.2,294.7c2.6-15.2,5.2-30.5,7.7-45.8c-4.9-12.8-9.7-25.7-14.5-38.5
	c-11.5,1.8-23.1,3.6-34.6,5.4c5.5,27.7,11.1,55.5,16.7,83.2C1196.4,297.3,1201.3,296.4,1211.2,294.7L1211.2,294.7z"/>
</svg>
