<svg xmlns="http://www.w3.org/2000/svg" viewBox="0 0 2048 1024"><defs><style>.a{fill:#a1e0ff;}.b{fill:#5d101d;}.c{fill:#fff;}.d{fill:#fff076;}.e{fill:#ffa607;stroke:#5d101d;stroke-linecap:round;stroke-linejoin:round;stroke-width:7px;}</style></defs><title>diamond</title><path class="a" d="M1049.1,847.7l288.9-386a52.12,52.12,0,0,0,2.1-59.3L1270.4,294a51.94,51.94,0,0,0-43.7-23.9H824.3a52.11,52.11,0,0,0-45.7,27.1L720.4,404.1a52,52,0,0,0,3.3,55L1000,846.9a30.37,30.37,0,0,0,42.3,7.1A25.43,25.43,0,0,0,1049.1,847.7Z"/><path class="b" d="M1024.9,870.9a41.21,41.21,0,0,1-33.7-17.3L714.8,465.7a63.26,63.26,0,0,1-4-66.7L769,292.1a62.83,62.83,0,0,1,55.3-32.9h402.2a62.88,62.88,0,0,1,53,28.9l69.7,108.4a63.29,63.29,0,0,1-2.5,71.8l-288.9,386a42.67,42.67,0,0,1-9.1,8.9,40.44,40.44,0,0,1-23.8,7.7ZM824.3,281.2a41,41,0,0,0-36,21.4L730.1,409.5a41.43,41.43,0,0,0,2.6,43.4L1009,840.7a19.26,19.26,0,0,0,26.9,4.5,21.4,21.4,0,0,0,4.3-4.2l288.9-386a41.14,41.14,0,0,0,1.7-46.7l-69.7-108.4a40.85,40.85,0,0,0-34.5-18.8H824.3Z"/><path class="c" d="M1021.7,270.9l-109,153h230Z"/><path class="d" d="M1028.2,821.9l-110.5-388h221Z"/><path class="b" d="M1260.4,418.2h72.3a12,12,0,0,1,0,24h-72.3a12,12,0,0,1,0-24ZM928.7,442.7l96.4,357.5,96.4-357.4-192.8-.1Zm-3.7-24,198.8.1-96-137.3c-.1-.1-.2-.2-.2-.3L927.2,416.5A9.19,9.19,0,0,1,925,418.7Zm-36.6,0L796,295.7a11.61,11.61,0,0,1,2.3-16.2c.2-.1.3-.2.5-.3a12.88,12.88,0,0,1,17.4,2.9L907.8,404c.1-.2.2-.3.3-.5l101-136a12.13,12.13,0,0,1,16.5-2.8c.1.1.3.2.4.3a13.63,13.63,0,0,1,2.4,2.4,9.15,9.15,0,0,1,2.5-2.3c.1,0,.1-.1.2-.1a12.24,12.24,0,0,1,16.8,3.1l94.6,135.3L1235,270.8a12.42,12.42,0,0,1,17-3.2c.1,0,.1.1.2.1a12.1,12.1,0,0,1,3,16.7l-93.8,134.5h62.4a12,12,0,0,1,0,24l-74.9-.1L1039.1,849.4a18.7,18.7,0,0,1-29.9-7.5L901.5,442.7l-172.9-.1a12,12,0,0,1,0-24l159.8.1Z"/><path class="e" d="M530,563.6q-10.74,22-21.66,43.84-61.28-9.72-122.27-21.08,14.77-76.83,29.35-153.7,60.58,8.5,121.36,15.31-.65,24.62-1.23,49.23c-5.87,9.32-8.82,14-14.75,23.28Q525.4,542.05,530,563.6ZM441.1,529.07l-4.3,29.44q22.92,3.31,45.86,6.43c1.83-4.9,2.75-7.35,4.57-12.25-2.22-7-3.33-10.56-5.52-17.61Q461.4,532.18,441.1,529.07Zm53.84-40.53,1.58-16.08q-23.06-1.55-46.1-3.3l-5.15,33.32q19.34,1.68,38.7,3.16C488.38,498.81,490.57,495.39,494.95,488.55Z"/><path class="e" d="M674.85,570.76q.17,24.9.4,49.8-64.55-4.61-128.93-11.07,11.47-79,22.78-157.93,57.53,5.87,115.18,10.25.7,16.55,1.41,33.11-36-.14-71.93-.82c-.66,8.59-1,12.89-1.65,21.48q30.43.54,60.86.71-2.53,17.27-5.07,34.53-29-2.34-58-5c-.74,10.52-1.11,15.78-1.84,26.3Q641.43,571.66,674.85,570.76Z"/><path class="e" d="M697.63,620.13q1.45-23.62,2.9-47.23,16.35,2.71,32.72,5.33.2-53.1.56-106.2,22,.88,44,1.58Q771.16,546.29,764.35,619,731,619.76,697.63,620.13Z"/><path class="e" d="M911,584.26q1.62,24.85,3.3,49.69-64.64-.84-129.23-3.51,6.83-79.49,13.51-159,57.71,2.5,115.46,3.5,1.66,16.49,3.34,33-35.89,2-71.79,3.38c-.16,8.61-.24,12.92-.39,21.53q30.38-1.23,60.74-2.85-1.52,17.39-3,34.77-29.1-.64-58.18-1.6c-.12,10.54-.18,15.82-.3,26.36Q877.72,587.11,911,584.26Z"/><path class="e" d="M954.74,633.13Q937.25,563.19,920.89,493q23.54-2.79,47-5.85,4.18,35.2,8.49,70.38,6.55-32.64,12.93-65.32,18.09,2,36.19,3.83,6.4,20.4,12.88,40.77,2.34-24.66,4.62-49.32,25.72,1.11,51.44,2-17.64,69.52-36.43,138.74-14.32,2.53-28.65,5Q1017,601,1004.83,568.79q-9.41,32.27-19,64.46Q970.27,633.26,954.74,633.13Z"/><path class="e" d="M1221.48,581q3.52,24.65,7.1,49.29-64.51,4.12-129.11,6.4.72-79.78,1.29-159.56,57.73-1.93,115.38-5.36,2.92,16.31,5.86,32.62-35.63,4.71-71.32,8.87c.5,8.6.75,12.9,1.26,21.5q30.2-3.56,60.34-7.49-.18,17.45-.37,34.9-29.06,1.59-58.14,2.86c.68,10.52,1,15.78,1.72,26.31Q1188.52,586.41,1221.48,581Z"/><path class="e" d="M1241.85,477.55q22.16-3,44.29-6.1-.06,56.65-.3,113.3,33.28-6.32,66.47-13.09l4,49.13q-50.93,2.64-101.9,4.17Q1248.05,551.26,1241.85,477.55Z"/><path class="e" d="M1493.09,558.58q5.18,24.36,10.41,48.7-64.16,8.46-128.53,15.08-4.64-79.65-9.43-159.28,57.54-5.81,114.89-13.11,4,16.08,8,32.15-35.28,7.1-70.66,13.65l2.7,21.37q29.92-5.58,59.77-11.54,1,17.42,2,34.85-28.92,3.55-57.88,6.77c1.39,10.45,2.09,15.68,3.48,26.13Q1460.53,566.18,1493.09,558.58Z"/><path class="e" d="M1507,446.2q51.67-5.47,103.19-12.13,19.61,37.91,39.65,75.59-8.87,40.44-18.22,80.76-53,3.85-106,6.48Zm86.8,107.66q3.93-22.87,7.74-45.76-7.3-19.26-14.52-38.55-17.29,2.76-34.61,5.37,8.32,41.62,16.74,83.22C1579,556.46,1583.91,555.6,1593.76,553.86Z"/></svg>