<?xml version="1.0" standalone="no"?><!DOCTYPE svg PUBLIC "-//W3C//DTD SVG 1.1//EN" "http://www.w3.org/Graphics/SVG/1.1/DTD/svg11.dtd"><svg class="icon" width="1024px" height="1024.00px" viewBox="0 0 1024 1024" version="1.1" xmlns="http://www.w3.org/2000/svg"><path d="M512 512m-407.328221-168.720873a440.888889 440.888889 0 1 0 814.656442 337.441746 440.888889 440.888889 0 1 0-814.656442-337.441746Z" fill="#7AD7FF" /><path d="M512 789.091556v163.911111c-56.277333 0.028444-113.493333-10.808889-168.718222-33.678223a439.566222 439.566222 0 0 1-143.104-95.473777l115.882666-115.911111L512 789.091556z" fill="#278DD3" /><path d="M200.163556 200.163556l115.911111 115.911111L234.894222 512H70.997333c-0.028444-56.277333 10.808889-113.493333 33.678223-168.718222a439.566222 439.566222 0 0 1 95.488-143.118222z" fill="#DEFFFF" /><path d="M234.908444 512l81.152 195.939556-115.896888 115.911111A442.410667 442.410667 0 0 1 70.997333 512h163.911111z" fill="#56B6F7" /><path d="M707.939556 707.939556l115.911111 115.896888A442.410667 442.410667 0 0 1 512 953.002667V789.091556l195.939556-81.152z" fill="#AAE3FE" /><path d="M953.002667 512.014222c0.028444 56.277333-10.808889 113.493333-33.678223 168.704a439.566222 439.566222 0 0 1-95.488 143.118222l-115.911111-115.911111L789.105778 512z" fill="#56B6F7" /><path d="M680.718222 104.675556a439.566222 439.566222 0 0 1 143.118222 95.488l-115.911111 115.911111L512 234.894222V70.997333c56.277333-0.028444 113.493333 10.808889 168.718222 33.678223z" fill="#DEFFFF" /><path d="M512 70.997333v163.911111l-195.939556 81.152-115.911111-115.896888A442.410667 442.410667 0 0 1 512 70.997333zM823.836444 200.163556A442.410667 442.410667 0 0 1 953.002667 512H789.091556l-81.152-195.939556z" fill="#AAE3FE" /></svg>