<?xml version="1.0" standalone="no"?><!DOCTYPE svg PUBLIC "-//W3C//DTD SVG 1.1//EN" "http://www.w3.org/Graphics/SVG/1.1/DTD/svg11.dtd"><svg class="icon" width="1024px" height="1024.00px" viewBox="0 0 1024 1024" version="1.1" xmlns="http://www.w3.org/2000/svg"><path d="M512 995.555556c196.366222 0 355.555556-159.189333 355.555556-355.555556 0-130.915556-118.513778-334.762667-355.555556-611.555556-237.041778 276.792889-355.555556 480.64-355.555556 611.555556 0 196.366222 159.189333 355.555556 355.555556 355.555556z" fill="#1E7405" /><path d="M506.126222 995.512889C312.462222 992.369778 156.444444 834.403556 156.444444 640c0-130.915556 118.513778-334.762667 355.555556-611.555556v967.111112z" fill="#279D2B" /><path d="M512 654.222222v341.333334c-191.601778 0-347.818667-151.566222-355.271111-341.333334H512z" fill="#19802D" /><path d="M512 654.222222v341.333334c191.601778 0 347.818667-151.552 355.271111-341.333334H512z" fill="#2EB825" /><path d="M611.555556 824.888889l85.333333 118.869333A353.891556 353.891556 0 0 1 512 995.555556a353.891556 353.891556 0 0 1-184.903111-51.797334L412.444444 824.888889h199.111112z" fill="#339C35" /><path d="M412.444444 824.888889l-128-170.666667 227.555556-412.444444 227.555556 412.444444-128 170.666667z" fill="#8CDA6A" /></svg>