<?xml version="1.0" standalone="no"?><!DOCTYPE svg PUBLIC "-//W3C//DTD SVG 1.1//EN" "http://www.w3.org/Graphics/SVG/1.1/DTD/svg11.dtd"><svg class="icon" width="1024px" height="1024.00px" viewBox="0 0 1024 1024" version="1.1" xmlns="http://www.w3.org/2000/svg"><path d="M85.333333 85.333333c142.222222 47.402667 284.444444 71.111111 426.666667 71.111111s284.444444-23.708444 426.666667-71.111111c-47.402667 142.222222-71.111111 284.444444-71.111111 426.666667s23.708444 284.444444 71.111111 426.666667c-142.222222-47.402667-284.444444-71.111111-426.666667-71.111111s-284.444444 23.708444-426.666667 71.111111c47.402667-142.222222 71.111111-284.444444 71.111111-426.666667S132.736 227.555556 85.333333 85.333333z" fill="#D6D6D6" /><path d="M938.666667 85.333333c-47.402667 142.222222-71.111111 284.444444-71.111111 426.666667s23.708444 284.444444 71.111111 426.666667c-142.222222-47.402667-284.444444-71.111111-426.666667-71.111111s-284.444444 23.708444-426.666667 71.111111c47.402667-142.222222 71.111111-284.444444 71.111111-426.666667S132.736 227.555556 85.333333 85.333333c142.222222 47.402667 284.444444 71.111111 426.666667 71.111111s284.444444-23.708444 426.666667-71.111111zM693.987556 329.998222l-5.063112 0.64C630.044444 337.777778 571.036444 341.333333 512 341.333333s-118.030222-3.555556-176.924444-10.695111l-5.077334-0.64 0.64 5.077334c6.542222 53.987556 10.069333 108.046222 10.624 162.161777L341.333333 512c0 59.036444-3.555556 118.030222-10.695111 176.924444l-0.64 5.063112 5.077334-0.625778c53.987556-6.542222 108.046222-10.069333 162.161777-10.624L512 682.666667c59.036444 0 118.030222 3.555556 176.924444 10.695111l5.063112 0.625778-0.625778-5.063112a1474.033778 1474.033778 0 0 1-10.624-162.161777L682.666667 512c0-59.036444 3.555556-118.030222 10.695111-176.924444l0.625778-5.077334z" fill="#F8F8F8" /><path d="M938.368 86.257778L938.666667 85.333333c-47.402667 142.222222-71.111111 284.444444-71.111111 426.666667 0 141.909333 23.608889 283.832889 70.798222 425.742222L694.641778 693.987556l-0.839111-1.450667-0.440889-3.612445a1474.033778 1474.033778 0 0 1-10.624-162.161777L682.666667 512c0-59.036444 3.555556-118.030222 10.695111-176.924444l0.455111-3.84 0.824889-1.237334L938.368 86.257778zM85.333333 938.666667c47.402667-142.222222 71.111111-284.444444 71.111111-426.666667 0-137.486222-22.144-274.958222-66.446222-412.444444L85.333333 85.333333l244.664889 244.664889 0.64 5.077334c6.542222 53.987556 10.069333 108.046222 10.624 162.161777L341.333333 512c0 59.036444-3.555556 118.030222-10.695111 176.924444l-0.64 5.063112L85.333333 938.666667z" fill="#CCCCCC" /></svg>