<?xml version="1.0" standalone="no"?><!DOCTYPE svg PUBLIC "-//W3C//DTD SVG 1.1//EN" "http://www.w3.org/Graphics/SVG/1.1/DTD/svg11.dtd"><svg class="icon" width="1024px" height="1010.19px" viewBox="0 0 1038 1024" version="1.1" xmlns="http://www.w3.org/2000/svg"><path d="M590.222222 85.333333L938.666667 433.777778v156.444444L590.222222 938.666667h-156.444444L85.333333 590.222222v-156.444444L433.777778 85.333333z" fill="#F4DC27" /><path d="M227.555556 531.299556L492.700444 796.444444 433.777778 938.666667 85.333333 590.222222z" fill="#ED9B0D" /><path d="M590.222222 85.333333L938.666667 433.777778l-142.222223 58.922666L531.299556 227.555556z" fill="#F1B600" /><path d="M433.777778 85.333333l58.908444 142.222223h38.613334L590.222222 85.333333z" fill="#F1F50E" /><path d="M433.777778 938.666667l58.922666-142.222223h38.584889L590.222222 938.666667z" fill="#EDC102" /><path d="M796.444444 531.285333v-38.584889L938.666667 433.777778v156.444444z" fill="#F6CA18" /><path d="M227.555556 531.299556L85.333333 590.222222v-156.444444l142.222223 58.908444z" fill="#F1B600" /><path d="M590.222222 938.666667l-58.922666-142.222223L796.444444 531.285333 938.666667 590.222222z" fill="#EFB000" /><path d="M227.555556 492.700444L85.333333 433.777778 433.777778 85.333333l58.922666 142.222223z" fill="#F0CC00" /></svg>